<svg width="601" height="599" viewBox="0 0 601 599" fill="none" xmlns="http://www.w3.org/2000/svg">
<path d="M461.825 0.811523C455.959 1.47253 439.185 2.95984 424.643 4.11658C360.193 9.2395 325.903 12.7099 310.203 15.6019C306.816 16.2629 298.47 17.0065 291.612 17.2544C232.038 19.568 166.927 40.1423 124.787 70.0535C99.9985 87.6533 80.7463 110.624 72.153 133.016C68.8479 141.527 65.7906 153.673 65.1296 160.696C62.8987 184.658 80.8289 210.355 118.672 237.292C146.022 256.71 175.52 272.739 251.042 309.426C313.178 339.585 333.422 350.244 353.583 363.63C371.265 375.28 382.916 386.435 387.708 396.185C390.518 401.887 390.848 411.306 388.369 416.016C377.38 436.921 334.827 455.099 256.248 472.533C231.129 478.152 211.381 481.953 175.107 488.315C130.323 496.165 101.568 502.858 74.7144 511.864C33.5658 525.498 11.1737 539.875 2.49778 558.136C0.0189512 563.259 -0.0636765 563.92 0.0189513 573.835C0.0189513 583.089 0.266834 584.907 2.49778 591.104C3.81983 594.988 5.30713 598.21 5.80289 598.375C6.29866 598.541 7.6207 597.962 8.61224 597.136L10.5953 595.566L9.19063 590.443C6.79443 581.767 7.78596 576.396 13.2394 569.29C21.75 558.136 49.6782 545.659 88.7611 535.496C121.399 527.068 149.988 521.449 239.144 506.08C265.75 501.453 297.314 495.834 309.377 493.603C410.431 474.599 461.33 457.495 481.739 435.599C496.281 420.147 493.968 406.266 473.641 386.6C448.688 362.556 413.653 341.734 299.875 283.398C228.319 246.712 201.135 231.921 174.694 215.396C134.867 190.442 114.706 170.033 114.872 154.995C115.037 143.427 126.026 124.092 138.503 113.433C163.209 92.363 199.565 78.2337 251.951 69.4752C281.945 64.4349 312.434 61.7908 357.053 60.3861L369.613 59.973L372.174 62.1213C375.232 64.6827 376.554 67.1616 377.958 72.8629C378.619 75.6722 380.85 80.0515 384.651 85.6702C388.782 91.8672 390.435 95.0898 390.848 97.8991C391.757 104.509 392.253 104.84 405.804 108.145C412.497 109.715 421.338 111.698 425.469 112.442C444.804 115.912 459.429 123.183 476.698 137.726C480.83 141.196 493.059 152.433 503.883 162.679C523.218 180.94 528.175 184.658 532.885 184.658C535.364 184.658 540.322 180.444 543.379 175.652C545.362 172.512 545.693 171.025 545.693 166.397C545.693 162.762 546.436 158.465 547.676 154.334C548.75 150.781 549.907 146.236 550.237 144.253C550.898 139.957 550.815 140.039 543.544 146.402C540.735 148.798 538.173 150.781 537.76 150.781C536.769 150.698 505.122 108.393 503.305 104.675C500.66 99.1385 502.561 92.8588 507.932 89.6363C510.989 87.7359 520.491 87.488 538.504 88.81C550.981 89.7189 555.112 90.7105 556.847 93.1893C558.582 95.6681 558.417 104.84 556.434 114.342C555.525 118.639 554.782 122.853 554.782 123.844C554.782 125.497 554.864 125.497 556.517 123.514C559.491 119.795 566.019 109.963 568.333 105.666C570.481 101.7 570.977 101.369 575.439 100.13C582.049 98.2296 587.915 92.6935 594.939 81.6214C599.648 74.2676 600.557 72.2018 600.888 68.4836C601.549 60.634 599.731 59.1467 583.288 54.5195C555.277 46.6699 532.555 34.1105 508.18 13.2056C493.885 0.976746 484.3 -1.58472 461.825 0.811523Z" fill="white"/>
</svg>
